<mxfile host="65bd71144e" modified="2020-12-29T17:38:06.637Z" agent="5.0 (Windows NT 10.0; Win64; x64) AppleWebKit/537.36 (KHTML, like Gecko) Code/1.52.1 Chrome/83.0.4103.122 Electron/9.3.5 Safari/537.36" etag="NJiWNtEjZw9dtvqVK13z" version="13.10.0" type="embed">
    <diagram id="yRctSxU9xr1KFk2ytgVb" name="Page-1">
        <mxGraphModel dx="1072" dy="581" grid="0" gridSize="10" guides="1" tooltips="1" connect="1" arrows="1" fold="1" page="0" pageScale="1" pageWidth="827" pageHeight="1169" background="#ffffff" math="0" shadow="0">
            <root>
                <mxCell id="0"/>
                <mxCell id="1" parent="0"/>
                <mxCell id="2" value="STMatrix" style="html=1;strokeColor=#121212;fontColor=#000000;fillColor=#FFFFFF;" parent="1" vertex="1">
                    <mxGeometry x="270" y="230" width="110" height="50" as="geometry"/>
                </mxCell>
                <mxCell id="3" value="SpaceColumn" style="html=1;strokeColor=#121212;fontColor=#000000;fillColor=#FFFFFF;" parent="1" vertex="1">
                    <mxGeometry x="450" y="230" width="110" height="50" as="geometry"/>
                </mxCell>
                <mxCell id="4" value="STPoint" style="html=1;strokeColor=#121212;fontColor=#000000;fillColor=#FFFFFF;" parent="1" vertex="1">
                    <mxGeometry x="640" y="230" width="110" height="50" as="geometry"/>
                </mxCell>
                <mxCell id="5" value="" style="endArrow=diamondThin;endFill=0;endSize=24;html=1;entryX=1;entryY=0.5;entryDx=0;entryDy=0;strokeColor=#121212;" parent="1" source="3" target="2" edge="1">
                    <mxGeometry width="160" relative="1" as="geometry">
                        <mxPoint x="430" y="290" as="sourcePoint"/>
                        <mxPoint x="590" y="290" as="targetPoint"/>
                    </mxGeometry>
                </mxCell>
                <mxCell id="6" value="" style="endArrow=diamondThin;endFill=0;endSize=24;html=1;entryX=1;entryY=0.5;entryDx=0;entryDy=0;exitX=0;exitY=0.5;exitDx=0;exitDy=0;strokeColor=#121212;" parent="1" source="4" target="3" edge="1">
                    <mxGeometry width="160" relative="1" as="geometry">
                        <mxPoint x="469" y="265" as="sourcePoint"/>
                        <mxPoint x="390" y="265" as="targetPoint"/>
                    </mxGeometry>
                </mxCell>
                <mxCell id="7" value="" style="endArrow=diamondThin;endFill=0;endSize=24;html=1;entryX=0.5;entryY=0;entryDx=0;entryDy=0;exitX=0.5;exitY=1;exitDx=0;exitDy=0;strokeColor=#121212;" parent="1" source="2" target="2" edge="1">
                    <mxGeometry width="160" relative="1" as="geometry">
                        <mxPoint x="460" y="265" as="sourcePoint"/>
                        <mxPoint x="390" y="265" as="targetPoint"/>
                        <Array as="points">
                            <mxPoint x="325" y="300"/>
                            <mxPoint x="230" y="300"/>
                            <mxPoint x="230" y="190"/>
                            <mxPoint x="325" y="190"/>
                        </Array>
                    </mxGeometry>
                </mxCell>
                <mxCell id="8" value="STInterval" style="html=1;strokeColor=#121212;fontColor=#000000;fillColor=#FFFFFF;" parent="1" vertex="1">
                    <mxGeometry x="270" y="440" width="110" height="50" as="geometry"/>
                </mxCell>
                <mxCell id="9" value="MLCoord" style="html=1;strokeColor=#121212;fontColor=#000000;fillColor=#FFFFFF;" parent="1" vertex="1">
                    <mxGeometry x="450" y="440" width="110" height="50" as="geometry"/>
                </mxCell>
                <mxCell id="10" value="Coord" style="html=1;strokeColor=#121212;fontColor=#000000;fillColor=#FFFFFF;" parent="1" vertex="1">
                    <mxGeometry x="640" y="440" width="110" height="50" as="geometry"/>
                </mxCell>
                <mxCell id="11" value="" style="endArrow=diamondThin;endFill=0;endSize=24;html=1;entryX=1;entryY=0.5;entryDx=0;entryDy=0;exitX=0;exitY=0.5;exitDx=0;exitDy=0;strokeColor=#121212;" parent="1" source="10" target="9" edge="1">
                    <mxGeometry width="160" relative="1" as="geometry">
                        <mxPoint x="650" y="305" as="sourcePoint"/>
                        <mxPoint x="570" y="305" as="targetPoint"/>
                    </mxGeometry>
                </mxCell>
                <mxCell id="12" value="" style="endArrow=diamondThin;endFill=0;endSize=24;html=1;exitX=0;exitY=0.5;exitDx=0;exitDy=0;strokeColor=#121212;" parent="1" source="9" target="8" edge="1">
                    <mxGeometry width="160" relative="1" as="geometry">
                        <mxPoint x="650" y="475" as="sourcePoint"/>
                        <mxPoint x="570" y="475" as="targetPoint"/>
                    </mxGeometry>
                </mxCell>
                <mxCell id="14" value="" style="html=1;verticalAlign=bottom;endArrow=open;dashed=1;endSize=8;exitX=0;exitY=0.5;exitDx=0;exitDy=0;entryX=0.5;entryY=1;entryDx=0;entryDy=0;strokeColor=#121212;" parent="1" source="20" target="2" edge="1">
                    <mxGeometry relative="1" as="geometry">
                        <mxPoint x="364.9999999999998" y="370" as="sourcePoint"/>
                        <mxPoint x="470" y="350" as="targetPoint"/>
                    </mxGeometry>
                </mxCell>
                <mxCell id="15" value="CoordinatesProperty&lt;br&gt;没实现" style="html=1;strokeColor=#121212;fontColor=#000000;fillColor=#FFFFFF;" parent="1" vertex="1">
                    <mxGeometry x="40" y="230" width="130" height="50" as="geometry"/>
                </mxCell>
                <mxCell id="18" value="" style="endArrow=diamondThin;endFill=0;endSize=24;html=1;exitX=0.5;exitY=1;exitDx=0;exitDy=0;edgeStyle=orthogonalEdgeStyle;entryX=0.5;entryY=1;entryDx=0;entryDy=0;strokeColor=#121212;" parent="1" source="15" target="9" edge="1">
                    <mxGeometry width="160" relative="1" as="geometry">
                        <mxPoint x="110" y="540" as="sourcePoint"/>
                        <mxPoint x="550" y="530" as="targetPoint"/>
                        <Array as="points">
                            <mxPoint x="105" y="530"/>
                            <mxPoint x="505" y="530"/>
                        </Array>
                    </mxGeometry>
                </mxCell>
                <mxCell id="19" value="" style="endArrow=diamondThin;endFill=0;endSize=24;html=1;exitX=1;exitY=0.5;exitDx=0;exitDy=0;entryX=0;entryY=0.5;entryDx=0;entryDy=0;strokeColor=#121212;" parent="1" source="15" target="2" edge="1">
                    <mxGeometry width="160" relative="1" as="geometry">
                        <mxPoint x="280" y="265" as="sourcePoint"/>
                        <mxPoint x="270" y="265" as="targetPoint"/>
                    </mxGeometry>
                </mxCell>
                <mxCell id="20" value="STScope" style="html=1;strokeColor=#121212;fontColor=#000000;fillColor=#FFFFFF;" parent="1" vertex="1">
                    <mxGeometry x="450" y="330" width="110" height="50" as="geometry"/>
                </mxCell>
                <mxCell id="21" value="" style="endArrow=block;endSize=16;endFill=0;html=1;entryX=0.5;entryY=1;entryDx=0;entryDy=0;exitX=0.5;exitY=0;exitDx=0;exitDy=0;edgeStyle=orthogonalEdgeStyle;strokeColor=#121212;" parent="1" source="8" target="20" edge="1">
                    <mxGeometry width="160" relative="1" as="geometry">
                        <mxPoint x="330" y="420" as="sourcePoint"/>
                        <mxPoint x="530" y="410" as="targetPoint"/>
                    </mxGeometry>
                </mxCell>
                <mxCell id="22" value="" style="endArrow=block;endSize=16;endFill=0;html=1;exitX=0.5;exitY=0;exitDx=0;exitDy=0;edgeStyle=orthogonalEdgeStyle;entryX=0.5;entryY=1;entryDx=0;entryDy=0;strokeColor=#121212;" parent="1" source="9" target="20" edge="1">
                    <mxGeometry width="160" relative="1" as="geometry">
                        <mxPoint x="335.0000000000001" y="450" as="sourcePoint"/>
                        <mxPoint x="510" y="380" as="targetPoint"/>
                    </mxGeometry>
                </mxCell>
                <mxCell id="23" value="" style="endArrow=block;endSize=16;endFill=0;html=1;exitX=0.5;exitY=0;exitDx=0;exitDy=0;edgeStyle=orthogonalEdgeStyle;entryX=0.5;entryY=1;entryDx=0;entryDy=0;strokeColor=#121212;" parent="1" source="10" target="20" edge="1">
                    <mxGeometry width="160" relative="1" as="geometry">
                        <mxPoint x="335" y="450" as="sourcePoint"/>
                        <mxPoint x="510" y="380" as="targetPoint"/>
                    </mxGeometry>
                </mxCell>
                <mxCell id="24" value="" style="endArrow=diamondThin;endFill=0;endSize=24;html=1;exitX=0.5;exitY=1;exitDx=0;exitDy=0;edgeStyle=orthogonalEdgeStyle;strokeColor=#121212;" parent="1" source="3" edge="1">
                    <mxGeometry width="160" relative="1" as="geometry">
                        <mxPoint x="280" y="265" as="sourcePoint"/>
                        <mxPoint x="505" y="230" as="targetPoint"/>
                        <Array as="points">
                            <mxPoint x="505" y="300"/>
                            <mxPoint x="420" y="300"/>
                            <mxPoint x="420" y="190"/>
                            <mxPoint x="505" y="190"/>
                        </Array>
                    </mxGeometry>
                </mxCell>
            </root>
        </mxGraphModel>
    </diagram>
</mxfile>